DataType=double
version=3
OpenSimVersion=4.5-2023-11-26-efcdfd3eb
endheader
time	EMG01_right_gast_med	EMG02_right_glut_max	EMG03_left_gast_med	EMG04_left_glut_max	EMG05_right_glut_med	EMG06_right_bic_fem	EMG07_right_rect_fem	EMG08_right_vast_lat	EMG09_right_vast_med	EMG10_right_tens_fasc_lat	EMG11_left_glut_med	EMG12_left_bic_fem	EMG13_left_rect_fem	EMG14_left_vast_lat	EMG15_left_vast_med	EMG16_left_tens_fasc_lat
0.76	8.603263696731741	31.42843458117425	69.07367464614805	39.75010350454803	122.6931614380072	10.89159275558991	2.637231533592177	10.98682829912437	11.17617996881794	36.91911436130348	14.79081733491658	10.63279988654357	18.67551530767158	27.77161516053078	58.1985619761986	85.76211621808908
0.77	5.628866033671073	31.95703895479922	70.79442660768656	39.85652291081099	118.468537255429	11.62196410859477	2.390339235757593	10.51582104147516	10.67671493536128	35.8060342586848	14.42389154673553	9.688101908614168	17.68032022915204	26.02598435339593	56.77771184828248	85.41912544888764
0.78	3.085009646690672	32.36049716074563	72.43387679580631	39.83013696022434	113.8483205693203	12.45368784548818	2.163399968361927	10.03083679132479	10.10835478913267	34.5443041814784	14.06329067428887	8.778472463288113	16.6785079615424	24.27220200085078	55.19616547522672	84.8632078441986
0.79	0.9549854851995078	32.63904426470955	74.00547197618825	39.66978244870038	108.893292785769	13.39172466786484	1.957271308739081	9.536586626377829	9.478733178296938	33.1475734063288	13.71184575555986	7.910215063068742	15.68115004732806	22.52795328490117	53.47226460359818	84.09507209194643
0.8	-0.7817018215587224	32.79465174292699	75.52507696464586	39.3755229393817	103.6674627604913	14.4404461827061	1.772636709041604	9.038077279773317	8.796983638294376	31.63068866267291	13.37190513961841	7.088891050313959	14.69871634500822	20.81000216000198	51.6251731400223	83.11704881976188
0.8100000000000001	-2.148797673641663	32.83096139123493	77.01058048586069	38.94865483800721	98.23703141762454	15.60352383692496	1.610021842335648	8.540549701286409	8.073668650679778	30.00951705390138	13.04531563599537	6.319287263448969	13.74092627268388	19.13396672263078	49.67455243013787	81.93307629659539
0.82	-3.172736322309449	32.7531844181001	78.48140503926511	38.39170306884444	92.66934981779717	16.88381886918233	1.469812581301319	8.049410207866194	7.320690055435703	28.30076943269658	12.73341701917307	5.605395278823902	12.81662182591442	17.51412610622798	47.64024595906557	80.5486835408504
0.83	-3.882065490901824	32.56797132295647	79.95792551801001	37.7084052936965	87.03189101070214	18.28327433888474	1.352273833023722	7.570155568468	6.551181678116751	26.52182483925068	12.43704933687546	4.950401478738074	11.93366376409626	15.96326146817717	45.5419818063402	78.97096649129782
0.84	-4.306867271397111	32.28325899453971	81.46080435365157	36.90368525736104	81.3912551341499	19.80281027295024	1.257568449276693	7.108293585765979	5.779385009629376	24.69055647061526	12.15657211403173	4.35668712396898	11.09885172308043	14.49253272277948	43.39910024612056	77.20855311141175
0.85	-4.478185443745918	31.90810191078506	83.01025689763772	35.9836171882306	75.8122256174867	21.44222306139109	1.185775459991206	6.669260868896195	5.020508867834091	22.82515995834038	11.89189422820833	3.825837648464574	10.31786839429522	13.11139178280365	41.23031248125489	75.271554195203
0.86	-4.427468883189594	31.45249433734638	84.62526862482594	34.95538368189647	70.35689210596159	23.20009060827596	1.136906940303533	6.258339549896454	4.290574112032302	20.94398530834278	11.64251294164896	3.358660474581474	9.595247382079073	11.82753216799362	39.05349473253237	73.17149811523133
0.87	-4.18604007665184	30.9271898638213	86.32279250410265	33.82722914058714	65.08385302835498	25.07368547407011	1.110922909162641	5.880574691310223	3.606244606769723	19.06537440568927	11.40756037645131	2.95521071463865	8.934363944769881	10.64687396108361	36.88552005651905	70.92124902709993
0.88	-3.784596977915383	30.34352357753389	88.11695834191711	32.60841001256228	60.04750779598199	27.05889906762444	1.107743761204967	5.540694060530241	2.984645724139859	17.20750621243355	11.18585576279125	2.61482415591015	8.337447492204751	9.573582302057495	34.74212860044123	68.53490871705039
0.89	-3.252755479339888	29.71324091626597	90.01832610233204	31.30914218759915	55.29744569590486	29.15018042064995	1.127259849785116	5.243031825978641	2.443171752918588	15.38825155099506	10.97596207957253	2.336156927344899	7.805614376679595	8.610116932109307	32.63783560114319	66.02770297490858
0.9	-2.618638578651062	29.04833594052366	92.03321318916221	29.9405451399236	50.87793584673552	31.34049295643308	1.169337962402398	4.991457593742215	1.999283666383904	13.62503875522837	10.77624600244945	2.117231234597849	7.338919156870673	7.757309713477813	30.5858752377698	63.41585463264076
0.91	-1.908516807417317	28.36090047312097	94.16312241290724	28.51458183530436	46.82752025286214	33.62129204099838	1.233824554447185	4.789312071394989	1.670298797507295	11.93473068059899	10.5849401374467	1.955486528008336	6.936422177638146	7.014466546373589	28.59817735293667	60.71644664082752
0.92	-1.146502784133949	27.66298432660354	96.40429357515966	27.04399317281171	43.17871005907338	35.98252525417362	1.320545728464099	4.639350522496875	1.47317407541563	10.33351278619016	10.40020634555404	1.847835426529545	6.596271048472233	6.379489699756555	26.68537301558835	57.94727890059842
0.93	-0.3543011315764305	26.96646581020194	98.74739757455187	25.54222585071568	39.95778355950886	38.41265644253093	1.429304060430109	4.543695052662931	1.424284573593485	8.836791405944931	10.22019869773613	1.790723660025419	6.315793455936783	5.849016311191734	24.85682401387107	55.12672206826064
0.9399999999999999	0.4489863642293292	26.28293101218269	101.1773875515057	24.02335279933766	37.18468328807336	40.89871377348823	1.559872487063078	4.50379662949248	1.539199210445939	7.459101022703496	10.04312433749352	1.780193224232006	6.091598713622333	5.418568728002328	23.12067085294277	52.27357074349595
0.95	1.247001585884012	25.62356003323862	103.673516777924	22.50198549004806	34.87300847400247	43.42636133802247	1.7119855844743	4.520407572569655	1.832455560666355	6.214019324063464	9.867300298997721	1.811947881910154	5.919685497793477	5.082712476171933	21.48389378325767	49.40689750017614
0.96	2.026219038317109	24.99901837935526	106.2095279908248	20.99317756457886	33.03009814952021	45.97999365319516	1.885328670320102	4.593565062662197	2.317335913897448	5.114088909179316	9.691204186168665	1.881420112985883	5.795553280631142	4.835217943558379	19.95238161318931	46.54590810211847
0.97	2.775985719198983	24.41935207454374	108.7540139067085	19.51231945369378	31.65719915433218	48.54285272893031	2.07952521700031	4.722586026671003	3.005646957178048	4.170744579384875	9.513516674504856	1.983838636617044	5.714315020405863	4.669222272221865	18.53100332251438	43.70979729310115
0.98	3.488515129401487	23.89388561204625	111.2709437325727	18.07502390642792	30.74971210795365	51.09716760668511	2.294123065101596	4.906073562603098	3.907505732252591	3.394245164807983	9.333154186832468	2.114295692550292	5.670808705430257	4.57738834630467	17.22367785268409	40.9176041710264
0.99	4.158838911925299	23.43112244744096	113.7203455837988	16.69700253227892	30.29750710544162	53.62431571679429	2.528579898917936	5.141934871549873	5.031134778967783	2.793608930642932	9.149290873199305	2.267813343172382	5.659705426263316	4.552058082523402	16.033438167622	38.18806633222272
1	4.784719782827379	23.03864829337919	116.059130063379	15.39393360737959	30.28529959448787	56.10500389438561	2.78224842119112	5.427410459361691	6.382669562185075	2.37655186106226	8.961370023267444	2.439408112210435	5.675611831132808	4.585397551071535	14.96248675096525	35.53947240052373
1.01	5.366529530479288	22.72303806372714	118.2420360803258	14.1813215701604	30.69307584202127	58.51946498118021	3.054361661823354	5.759114163556021	7.965981364650472	2.149428485560234	8.769105869034393	2.624153317029422	5.713165114353903	4.669531846044419	14.01224083884302	32.98951307022766
1.02	5.907095920746858	22.48976789061535	120.2226761261091	13.07434882204533	31.49655675480264	60.84766430991473	3.344018874314907	6.133083350317554	9.782518852577077	2.117175286802621	8.572477099605404	2.817238513777407	5.767119060614491	4.796668036824178	13.18336671093533	30.55513132845323
